<mxfile host="app.diagrams.net" modified="2021-10-12T20:53:15.571Z" agent="5.0 (Windows NT 10.0; Win64; x64) AppleWebKit/537.36 (KHTML, like Gecko) Chrome/94.0.4606.71 Safari/537.36" etag="XRGC33p9PgyZqu6z6-1L" version="15.4.1" type="github">
  <diagram id="C5RBs43oDa-KdzZeNtuy" name="Page-1">
    <mxGraphModel dx="1679" dy="433" grid="1" gridSize="10" guides="1" tooltips="1" connect="1" arrows="1" fold="1" page="1" pageScale="1" pageWidth="827" pageHeight="1169" math="0" shadow="0">
      <root>
        <mxCell id="WIyWlLk6GJQsqaUBKTNV-0" />
        <mxCell id="WIyWlLk6GJQsqaUBKTNV-1" parent="WIyWlLk6GJQsqaUBKTNV-0" />
        <mxCell id="4lSmLYf6YMW0UVp9gH6T-2" value="" style="edgeStyle=orthogonalEdgeStyle;rounded=0;orthogonalLoop=1;jettySize=auto;html=1;" edge="1" parent="WIyWlLk6GJQsqaUBKTNV-1" source="4lSmLYf6YMW0UVp9gH6T-0" target="4lSmLYf6YMW0UVp9gH6T-1">
          <mxGeometry relative="1" as="geometry" />
        </mxCell>
        <mxCell id="4lSmLYf6YMW0UVp9gH6T-0" value="Digite a data" style="rounded=1;whiteSpace=wrap;html=1;" vertex="1" parent="WIyWlLk6GJQsqaUBKTNV-1">
          <mxGeometry x="70" y="30" width="120" height="60" as="geometry" />
        </mxCell>
        <mxCell id="4lSmLYf6YMW0UVp9gH6T-8" value="" style="edgeStyle=orthogonalEdgeStyle;rounded=0;orthogonalLoop=1;jettySize=auto;html=1;" edge="1" parent="WIyWlLk6GJQsqaUBKTNV-1" source="4lSmLYf6YMW0UVp9gH6T-1" target="4lSmLYf6YMW0UVp9gH6T-9">
          <mxGeometry relative="1" as="geometry">
            <mxPoint y="130" as="targetPoint" />
          </mxGeometry>
        </mxCell>
        <mxCell id="4lSmLYf6YMW0UVp9gH6T-13" value="" style="edgeStyle=orthogonalEdgeStyle;rounded=0;orthogonalLoop=1;jettySize=auto;html=1;" edge="1" parent="WIyWlLk6GJQsqaUBKTNV-1" source="4lSmLYf6YMW0UVp9gH6T-1" target="4lSmLYf6YMW0UVp9gH6T-12">
          <mxGeometry relative="1" as="geometry" />
        </mxCell>
        <mxCell id="4lSmLYf6YMW0UVp9gH6T-1" value="A data é correta" style="rhombus;whiteSpace=wrap;html=1;rounded=1;" vertex="1" parent="WIyWlLk6GJQsqaUBKTNV-1">
          <mxGeometry x="75" y="160" width="110" height="100" as="geometry" />
        </mxCell>
        <mxCell id="4lSmLYf6YMW0UVp9gH6T-11" value="" style="edgeStyle=orthogonalEdgeStyle;rounded=0;orthogonalLoop=1;jettySize=auto;html=1;entryX=0;entryY=0.25;entryDx=0;entryDy=0;" edge="1" parent="WIyWlLk6GJQsqaUBKTNV-1" source="4lSmLYf6YMW0UVp9gH6T-9" target="4lSmLYf6YMW0UVp9gH6T-0">
          <mxGeometry relative="1" as="geometry">
            <mxPoint y="45" as="targetPoint" />
            <Array as="points">
              <mxPoint y="45" />
            </Array>
          </mxGeometry>
        </mxCell>
        <mxCell id="4lSmLYf6YMW0UVp9gH6T-9" value="Nao" style="text;html=1;strokeColor=none;fillColor=none;align=center;verticalAlign=middle;whiteSpace=wrap;rounded=0;" vertex="1" parent="WIyWlLk6GJQsqaUBKTNV-1">
          <mxGeometry x="-30" y="110" width="60" height="30" as="geometry" />
        </mxCell>
        <mxCell id="4lSmLYf6YMW0UVp9gH6T-15" value="" style="edgeStyle=orthogonalEdgeStyle;rounded=0;orthogonalLoop=1;jettySize=auto;html=1;" edge="1" parent="WIyWlLk6GJQsqaUBKTNV-1" source="4lSmLYf6YMW0UVp9gH6T-12" target="4lSmLYf6YMW0UVp9gH6T-14">
          <mxGeometry relative="1" as="geometry" />
        </mxCell>
        <mxCell id="4lSmLYf6YMW0UVp9gH6T-12" value="Digite a idade" style="whiteSpace=wrap;html=1;rounded=1;" vertex="1" parent="WIyWlLk6GJQsqaUBKTNV-1">
          <mxGeometry x="70" y="310" width="120" height="60" as="geometry" />
        </mxCell>
        <mxCell id="4lSmLYf6YMW0UVp9gH6T-17" value="" style="edgeStyle=orthogonalEdgeStyle;rounded=0;orthogonalLoop=1;jettySize=auto;html=1;" edge="1" parent="WIyWlLk6GJQsqaUBKTNV-1" source="4lSmLYf6YMW0UVp9gH6T-14">
          <mxGeometry relative="1" as="geometry">
            <mxPoint x="330" y="240" as="targetPoint" />
          </mxGeometry>
        </mxCell>
        <mxCell id="4lSmLYf6YMW0UVp9gH6T-20" value="" style="edgeStyle=orthogonalEdgeStyle;rounded=0;orthogonalLoop=1;jettySize=auto;html=1;" edge="1" parent="WIyWlLk6GJQsqaUBKTNV-1" source="4lSmLYf6YMW0UVp9gH6T-14">
          <mxGeometry relative="1" as="geometry">
            <mxPoint x="430" y="340" as="targetPoint" />
          </mxGeometry>
        </mxCell>
        <mxCell id="4lSmLYf6YMW0UVp9gH6T-14" value=";É maior de Idade" style="rhombus;whiteSpace=wrap;html=1;rounded=1;" vertex="1" parent="WIyWlLk6GJQsqaUBKTNV-1">
          <mxGeometry x="275" y="290" width="110" height="100" as="geometry" />
        </mxCell>
        <mxCell id="4lSmLYf6YMW0UVp9gH6T-24" value="" style="edgeStyle=orthogonalEdgeStyle;rounded=0;orthogonalLoop=1;jettySize=auto;html=1;" edge="1" parent="WIyWlLk6GJQsqaUBKTNV-1" source="4lSmLYf6YMW0UVp9gH6T-18" target="4lSmLYf6YMW0UVp9gH6T-23">
          <mxGeometry relative="1" as="geometry" />
        </mxCell>
        <mxCell id="4lSmLYf6YMW0UVp9gH6T-18" value="Nao" style="text;html=1;strokeColor=none;fillColor=none;align=center;verticalAlign=middle;whiteSpace=wrap;rounded=0;" vertex="1" parent="WIyWlLk6GJQsqaUBKTNV-1">
          <mxGeometry x="300" y="210" width="60" height="30" as="geometry" />
        </mxCell>
        <mxCell id="4lSmLYf6YMW0UVp9gH6T-26" value="" style="edgeStyle=orthogonalEdgeStyle;rounded=0;orthogonalLoop=1;jettySize=auto;html=1;" edge="1" parent="WIyWlLk6GJQsqaUBKTNV-1" source="4lSmLYf6YMW0UVp9gH6T-22" target="4lSmLYf6YMW0UVp9gH6T-25">
          <mxGeometry relative="1" as="geometry" />
        </mxCell>
        <mxCell id="4lSmLYf6YMW0UVp9gH6T-22" value="Sim" style="text;html=1;strokeColor=none;fillColor=none;align=center;verticalAlign=middle;whiteSpace=wrap;rounded=0;" vertex="1" parent="WIyWlLk6GJQsqaUBKTNV-1">
          <mxGeometry x="430" y="325" width="60" height="30" as="geometry" />
        </mxCell>
        <mxCell id="4lSmLYf6YMW0UVp9gH6T-23" value="Entrada nao permitida" style="whiteSpace=wrap;html=1;" vertex="1" parent="WIyWlLk6GJQsqaUBKTNV-1">
          <mxGeometry x="270" y="85" width="120" height="60" as="geometry" />
        </mxCell>
        <mxCell id="4lSmLYf6YMW0UVp9gH6T-28" value="" style="edgeStyle=orthogonalEdgeStyle;rounded=0;orthogonalLoop=1;jettySize=auto;html=1;" edge="1" parent="WIyWlLk6GJQsqaUBKTNV-1" source="4lSmLYf6YMW0UVp9gH6T-25" target="4lSmLYf6YMW0UVp9gH6T-27">
          <mxGeometry relative="1" as="geometry" />
        </mxCell>
        <mxCell id="4lSmLYf6YMW0UVp9gH6T-25" value="Entrada permitida" style="whiteSpace=wrap;html=1;" vertex="1" parent="WIyWlLk6GJQsqaUBKTNV-1">
          <mxGeometry x="540" y="310" width="120" height="60" as="geometry" />
        </mxCell>
        <mxCell id="4lSmLYf6YMW0UVp9gH6T-30" value="" style="edgeStyle=orthogonalEdgeStyle;rounded=0;orthogonalLoop=1;jettySize=auto;html=1;" edge="1" parent="WIyWlLk6GJQsqaUBKTNV-1" source="4lSmLYf6YMW0UVp9gH6T-27" target="4lSmLYf6YMW0UVp9gH6T-29">
          <mxGeometry relative="1" as="geometry" />
        </mxCell>
        <mxCell id="4lSmLYf6YMW0UVp9gH6T-27" value="Verificar lista de participantes" style="whiteSpace=wrap;html=1;" vertex="1" parent="WIyWlLk6GJQsqaUBKTNV-1">
          <mxGeometry x="540" y="450" width="120" height="60" as="geometry" />
        </mxCell>
        <mxCell id="4lSmLYf6YMW0UVp9gH6T-32" value="" style="edgeStyle=orthogonalEdgeStyle;rounded=0;orthogonalLoop=1;jettySize=auto;html=1;" edge="1" parent="WIyWlLk6GJQsqaUBKTNV-1" source="4lSmLYf6YMW0UVp9gH6T-29" target="4lSmLYf6YMW0UVp9gH6T-33">
          <mxGeometry relative="1" as="geometry">
            <mxPoint x="480" y="620" as="targetPoint" />
          </mxGeometry>
        </mxCell>
        <mxCell id="4lSmLYf6YMW0UVp9gH6T-37" value="" style="edgeStyle=orthogonalEdgeStyle;rounded=0;orthogonalLoop=1;jettySize=auto;html=1;" edge="1" parent="WIyWlLk6GJQsqaUBKTNV-1" source="4lSmLYf6YMW0UVp9gH6T-29">
          <mxGeometry relative="1" as="geometry">
            <mxPoint x="600" y="710" as="targetPoint" />
          </mxGeometry>
        </mxCell>
        <mxCell id="4lSmLYf6YMW0UVp9gH6T-43" value="" style="edgeStyle=orthogonalEdgeStyle;rounded=0;orthogonalLoop=1;jettySize=auto;html=1;exitX=0.983;exitY=0.5;exitDx=0;exitDy=0;exitPerimeter=0;" edge="1" parent="WIyWlLk6GJQsqaUBKTNV-1" source="4lSmLYf6YMW0UVp9gH6T-29" target="4lSmLYf6YMW0UVp9gH6T-42">
          <mxGeometry relative="1" as="geometry" />
        </mxCell>
        <mxCell id="4lSmLYf6YMW0UVp9gH6T-29" value="Existem mais de 100&lt;br&gt;participantes?" style="rhombus;whiteSpace=wrap;html=1;" vertex="1" parent="WIyWlLk6GJQsqaUBKTNV-1">
          <mxGeometry x="527.5" y="560" width="145" height="120" as="geometry" />
        </mxCell>
        <mxCell id="4lSmLYf6YMW0UVp9gH6T-35" value="" style="edgeStyle=orthogonalEdgeStyle;rounded=0;orthogonalLoop=1;jettySize=auto;html=1;" edge="1" parent="WIyWlLk6GJQsqaUBKTNV-1" source="4lSmLYf6YMW0UVp9gH6T-33">
          <mxGeometry relative="1" as="geometry">
            <mxPoint x="385" y="620" as="targetPoint" />
          </mxGeometry>
        </mxCell>
        <mxCell id="4lSmLYf6YMW0UVp9gH6T-33" value="Sim" style="text;html=1;strokeColor=none;fillColor=none;align=center;verticalAlign=middle;whiteSpace=wrap;rounded=0;" vertex="1" parent="WIyWlLk6GJQsqaUBKTNV-1">
          <mxGeometry x="440" y="605" width="60" height="30" as="geometry" />
        </mxCell>
        <mxCell id="4lSmLYf6YMW0UVp9gH6T-41" value="" style="edgeStyle=orthogonalEdgeStyle;rounded=0;orthogonalLoop=1;jettySize=auto;html=1;" edge="1" parent="WIyWlLk6GJQsqaUBKTNV-1" source="4lSmLYf6YMW0UVp9gH6T-38" target="4lSmLYf6YMW0UVp9gH6T-40">
          <mxGeometry relative="1" as="geometry" />
        </mxCell>
        <mxCell id="4lSmLYf6YMW0UVp9gH6T-38" value="Nao" style="text;html=1;strokeColor=none;fillColor=none;align=center;verticalAlign=middle;whiteSpace=wrap;rounded=0;" vertex="1" parent="WIyWlLk6GJQsqaUBKTNV-1">
          <mxGeometry x="570" y="710" width="60" height="30" as="geometry" />
        </mxCell>
        <mxCell id="4lSmLYf6YMW0UVp9gH6T-39" value="Entrada nao permitido" style="rounded=1;whiteSpace=wrap;html=1;" vertex="1" parent="WIyWlLk6GJQsqaUBKTNV-1">
          <mxGeometry x="230" y="590" width="150" height="70" as="geometry" />
        </mxCell>
        <mxCell id="4lSmLYf6YMW0UVp9gH6T-45" value="" style="edgeStyle=orthogonalEdgeStyle;rounded=0;orthogonalLoop=1;jettySize=auto;html=1;entryX=0.567;entryY=1.033;entryDx=0;entryDy=0;entryPerimeter=0;" edge="1" parent="WIyWlLk6GJQsqaUBKTNV-1" source="4lSmLYf6YMW0UVp9gH6T-40" target="4lSmLYf6YMW0UVp9gH6T-47">
          <mxGeometry relative="1" as="geometry">
            <mxPoint x="830" y="835" as="targetPoint" />
          </mxGeometry>
        </mxCell>
        <mxCell id="4lSmLYf6YMW0UVp9gH6T-40" value="Entrada permitido" style="whiteSpace=wrap;html=1;" vertex="1" parent="WIyWlLk6GJQsqaUBKTNV-1">
          <mxGeometry x="540" y="805" width="120" height="60" as="geometry" />
        </mxCell>
        <mxCell id="4lSmLYf6YMW0UVp9gH6T-50" value="" style="edgeStyle=orthogonalEdgeStyle;rounded=0;orthogonalLoop=1;jettySize=auto;html=1;" edge="1" parent="WIyWlLk6GJQsqaUBKTNV-1" source="4lSmLYf6YMW0UVp9gH6T-42">
          <mxGeometry relative="1" as="geometry">
            <mxPoint x="670" y="620" as="targetPoint" />
          </mxGeometry>
        </mxCell>
        <mxCell id="4lSmLYf6YMW0UVp9gH6T-42" value="Lista de participantes" style="whiteSpace=wrap;html=1;" vertex="1" parent="WIyWlLk6GJQsqaUBKTNV-1">
          <mxGeometry x="765" y="590" width="120" height="60" as="geometry" />
        </mxCell>
        <mxCell id="4lSmLYf6YMW0UVp9gH6T-46" value="Text" style="text;html=1;strokeColor=none;fillColor=none;align=center;verticalAlign=middle;whiteSpace=wrap;rounded=0;" vertex="1" parent="WIyWlLk6GJQsqaUBKTNV-1">
          <mxGeometry x="-300" y="490" width="60" height="30" as="geometry" />
        </mxCell>
        <mxCell id="4lSmLYf6YMW0UVp9gH6T-48" value="" style="edgeStyle=orthogonalEdgeStyle;rounded=0;orthogonalLoop=1;jettySize=auto;html=1;" edge="1" parent="WIyWlLk6GJQsqaUBKTNV-1" source="4lSmLYf6YMW0UVp9gH6T-47" target="4lSmLYf6YMW0UVp9gH6T-42">
          <mxGeometry relative="1" as="geometry" />
        </mxCell>
        <mxCell id="4lSmLYf6YMW0UVp9gH6T-47" value="Adicionar a lista" style="rounded=1;whiteSpace=wrap;html=1;" vertex="1" parent="WIyWlLk6GJQsqaUBKTNV-1">
          <mxGeometry x="765" y="720" width="120" height="60" as="geometry" />
        </mxCell>
      </root>
    </mxGraphModel>
  </diagram>
</mxfile>
